<svg xmlns="http://www.w3.org/2000/svg" viewBox="0 0 800 500">
  <rect width="800" height="500" fill="#eef1f7"/>
  <rect x="0" y="400" width="800" height="100" fill="#dfe4ee"/>
  <rect x="200" y="90" width="400" height="120" rx="18" fill="#fff" stroke="#c7cedb" stroke-width="3"/>
  <rect x="220" y="170" width="360" height="22" rx="6" fill="#e3e8f1"/>
  <path d="M235 181 H565" stroke="#b7c0d0" stroke-width="3"/>
  <circle cx="560" cy="120" r="6" fill="#2fbf71"/>
  <text x="500" y="126" font-family="Arial" font-size="18" fill="#0b1f45" font-weight="700">22°</text>
  <g fill="none" stroke="#7fb3e8" stroke-width="4" stroke-linecap="round" opacity=".8">
    <path d="M260 220 q10 30 -5 60 q-12 25 5 50"/><path d="M340 220 q10 30 -5 60 q-12 25 5 50"/>
    <path d="M420 220 q10 30 -5 60 q-12 25 5 50"/><path d="M500 220 q10 30 -5 60 q-12 25 5 50"/>
  </g>
  <g stroke="#c9a24a" stroke-width="8" stroke-linecap="round">
    <path d="M620 470 L680 230"/><path d="M740 470 L700 230"/>
    <path d="M630 430 H730"/><path d="M640 390 H724"/><path d="M650 350 H718"/><path d="M660 310 H711"/><path d="M670 270 H705"/>
  </g>
  <circle cx="660" cy="150" r="26" fill="#c68b5e"/>
  <path d="M634 142 q26 -34 52 0 z" fill="#c9a24a"/>
  <rect x="632" y="176" width="56" height="84" rx="14" fill="#0b1f45"/>
  <path d="M640 190 L590 170" stroke="#0b1f45" stroke-width="16" stroke-linecap="round"/>
  <circle cx="586" cy="168" r="9" fill="#c68b5e"/>
  <rect x="566" y="150" width="10" height="26" rx="3" fill="#c9a24a" transform="rotate(-30 571 163)"/>
  <rect x="640" y="255" width="18" height="70" rx="8" fill="#1e3a70"/><rect x="664" y="255" width="18" height="70" rx="8" fill="#1e3a70"/>
  <rect x="90" y="360" width="150" height="70" rx="8" fill="#c9a24a"/>
  <path d="M135 360 v-18 h60 v18" fill="none" stroke="#0b1f45" stroke-width="7"/>
  <rect x="90" y="385" width="150" height="8" fill="#a8843a"/>
</svg>
